<svg width="148" height="29" viewBox="0 0 148 29" fill="none" xmlns="http://www.w3.org/2000/svg">
<g filter="url(#filter0_d_15_2)">
<path d="M16.5393 17.9208H10.193L9.22883 20.8472H3.99989L10.5239 2.94189H16.2542L22.7525 20.8472H17.4963L16.5393 17.9208ZM13.3661 8.32353L11.4637 14.1091H15.2959L13.3661 8.32353Z" fill="#172B4D"/>
<path d="M17.0146 17.7654L16.9019 17.4208H16.5393H10.193H9.83126L9.71807 17.7643L8.86712 20.3472H4.71422L10.8739 3.44189H15.9038L22.0391 20.3472H17.8588L17.0146 17.7654ZM13.8405 8.16533L13.3628 6.73316L12.8912 8.16734L10.9887 13.9529L10.7729 14.6091H11.4637H15.2959H15.9897L15.7702 13.9509L13.8405 8.16533Z" stroke="black"/>
</g>
<path d="M24.38 2.05913H29.354V20.8526H24.38V2.05913Z" fill="#172B4D"/>
<path d="M37.4491 6.43311C38.2769 6.38356 39.1028 6.55772 39.84 6.93728C40.5773 7.31685 41.1989 7.88783 41.6394 8.59034V6.60213H46.6134V20.6872C46.6134 24.4932 44.5333 27.8493 39.4046 27.8493C34.9636 27.8493 32.2216 25.6162 31.8663 22.0895H36.7686C36.972 23.002 37.8345 23.5349 39.1037 23.5349C40.4991 23.5349 41.6423 22.9017 41.6423 20.6929V18.8652C41.2018 19.5673 40.5804 20.1381 39.8435 20.5176C39.1065 20.8972 38.281 21.0715 37.4534 21.0224C34.0782 21.0224 31.3878 18.2564 31.3878 13.717C31.3878 9.17765 34.0725 6.43311 37.4491 6.43311ZM39.0479 10.7719C38.677 10.7726 38.3105 10.8522 37.9727 11.0054C37.6349 11.1585 37.3336 11.3818 37.0888 11.6603C36.844 11.9389 36.6613 12.2663 36.5527 12.6209C36.4442 12.9755 36.4122 13.3492 36.4592 13.717C36.5247 14.2147 36.7324 14.6829 37.0571 15.0656C37.3819 15.4483 37.8102 15.7293 38.2905 15.875C38.7709 16.0207 39.2831 16.0248 39.7658 15.887C40.2485 15.7491 40.6812 15.475 41.0122 15.0976C41.3431 14.7202 41.5582 14.2554 41.6318 13.7589C41.7054 13.2623 41.6343 12.7551 41.427 12.298C41.2198 11.8408 40.8852 11.453 40.4632 11.1811C40.0413 10.9092 39.5499 10.7647 39.0479 10.7648V10.7719Z" fill="#172B4D"/>
<path d="M56.0773 21.0153C54.6427 20.9782 53.2508 20.5189 52.0757 19.695C50.9007 18.8711 49.9946 17.7192 49.4709 16.3832C48.9471 15.0471 48.8288 13.5864 49.1309 12.1835C49.4329 10.7807 50.1419 9.49802 51.1691 8.49588C52.1963 7.49374 53.4962 6.81662 54.9062 6.5492C56.3162 6.28177 57.7738 6.43591 59.0967 6.99233C60.4195 7.54875 61.549 8.48275 62.3439 9.67756C63.1387 10.8724 63.5636 12.275 63.5655 13.71C63.6115 14.6972 63.4478 15.6829 63.0852 16.6023C62.7227 17.5217 62.1696 18.3538 61.4621 19.044C60.7547 19.7342 59.909 20.2667 58.9809 20.6065C58.0528 20.9463 57.0632 21.0856 56.0773 21.0153ZM56.0773 16.7009C57.3466 16.7009 58.5128 15.7626 58.5128 13.7071C58.5128 11.6759 57.3667 10.7377 56.1103 10.7377C54.8539 10.7377 53.7236 11.6759 53.7236 13.7071C53.7164 15.7626 54.7823 16.7009 56.0773 16.7009Z" fill="#172B4D"/>
<path d="M78.4602 6.73274L71.0251 16.807H78.4602V20.8536H65.4408V17.0634L72.7986 6.96479H65.4408V2.95399H78.4602V6.73274Z" fill="#172B4D"/>
<path d="M87.5684 21.0157C85.6508 20.9889 83.8209 20.2084 82.4744 18.843C81.1279 17.4776 80.373 15.6372 80.373 13.7197C80.373 11.8022 81.1279 9.9617 82.4744 8.59634C83.8209 7.23098 85.6508 6.45046 87.5684 6.42359C88.5242 6.35778 89.4831 6.4967 90.3809 6.83105C91.2788 7.1654 92.0949 7.68749 92.7748 8.36245C93.4547 9.03741 93.9827 9.84967 94.3236 10.745C94.6644 11.6403 94.8103 12.598 94.7513 13.5542C94.7514 13.9441 94.7261 14.3336 94.6754 14.7202H85.259C85.3607 16.3718 86.249 17.0293 87.3621 17.0293C87.7362 17.0432 88.1058 16.944 88.4226 16.7447C88.7395 16.5453 88.989 16.2552 89.1385 15.912H94.4391C94.0606 17.4258 93.1691 18.7617 91.9164 19.6922C90.6637 20.6228 89.1272 21.0905 87.5684 21.0157ZM85.2848 12.3066H89.6714C89.6728 12.0342 89.6172 11.7646 89.508 11.515C89.3989 11.2654 89.2386 11.0415 89.0377 10.8575C88.8367 10.6736 88.5996 10.5338 88.3413 10.4471C88.0831 10.3604 87.8095 10.3288 87.5383 10.3542C86.9826 10.3253 86.4373 10.5131 86.0173 10.8781C85.5973 11.243 85.3352 11.7566 85.2862 12.3109L85.2848 12.3066Z" fill="#172B4D"/>
<path d="M106.48 13.2008C106.508 12.8735 106.468 12.544 106.362 12.233C106.256 11.9221 106.086 11.6366 105.864 11.3947C105.642 11.1527 105.372 10.9595 105.071 10.8274C104.77 10.6952 104.445 10.627 104.117 10.627C103.788 10.627 103.463 10.6952 103.162 10.8274C102.862 10.9595 102.592 11.1527 102.369 11.3947C102.147 11.6366 101.978 11.9221 101.871 12.233C101.765 12.544 101.725 12.8735 101.753 13.2008V20.8471H96.7847V6.60164H101.759V8.63855C102.249 7.95011 102.901 7.39319 103.658 7.01714C104.415 6.6411 105.253 6.45754 106.098 6.48274C109.402 6.48274 111.453 8.81761 111.453 12.5477V20.8557H106.479L106.48 13.2008Z" fill="#172B4D"/>
<path d="M113.788 2.74406C113.87 2.03118 114.212 1.37347 114.748 0.89605C115.283 0.418631 115.976 0.154831 116.694 0.154831C117.411 0.154831 118.104 0.418631 118.64 0.89605C119.176 1.37347 119.517 2.03118 119.6 2.74406C119.504 3.44718 119.157 4.09194 118.623 4.55879C118.089 5.02564 117.403 5.28292 116.694 5.28292C115.984 5.28292 115.298 5.02564 114.764 4.55879C114.23 4.09194 113.883 3.44718 113.788 2.74406ZM114.193 6.60159H119.168V20.8471H114.193V6.60159Z" fill="#172B4D"/>
<path d="M122.796 10.7391H121.045V6.60228H122.796V3.14869H127.797V6.60228H130.384V10.7391H127.797V15.5106C127.797 16.2712 128.125 16.6006 128.963 16.6006H130.409V20.8463H128.253C125.101 20.8463 122.796 19.5271 122.796 15.4404V10.7391Z" fill="#172B4D"/>
<path d="M132.695 2.05913H137.67V8.63112C138.166 7.93666 138.827 7.37617 139.593 6.99992C140.359 6.62367 141.207 6.4434 142.06 6.4753C145.309 6.4753 147.36 8.81016 147.36 12.5402V20.8526H142.386V13.2063C142.42 12.8762 142.384 12.5428 142.281 12.2276C142.177 11.9123 142.009 11.6222 141.787 11.3761C141.564 11.1299 141.292 10.9331 140.989 10.7984C140.686 10.6637 140.358 10.5942 140.026 10.5942C139.694 10.5942 139.366 10.6637 139.063 10.7984C138.76 10.9331 138.488 11.1299 138.266 11.3761C138.043 11.6222 137.875 11.9123 137.772 12.2276C137.668 12.5428 137.632 12.8762 137.666 13.2063V20.8526H132.691L132.695 2.05913Z" fill="#172B4D"/>
<defs>
<filter id="filter0_d_15_2" x="-0.000110626" y="2.94189" width="26.7526" height="25.9053" filterUnits="userSpaceOnUse" color-interpolation-filters="sRGB">
<feFlood flood-opacity="0" result="BackgroundImageFix"/>
<feColorMatrix in="SourceAlpha" type="matrix" values="0 0 0 0 0 0 0 0 0 0 0 0 0 0 0 0 0 0 127 0" result="hardAlpha"/>
<feOffset dy="4"/>
<feGaussianBlur stdDeviation="2"/>
<feComposite in2="hardAlpha" operator="out"/>
<feColorMatrix type="matrix" values="0 0 0 0 0 0 0 0 0 0 0 0 0 0 0 0 0 0 0.25 0"/>
<feBlend mode="normal" in2="BackgroundImageFix" result="effect1_dropShadow_15_2"/>
<feBlend mode="normal" in="SourceGraphic" in2="effect1_dropShadow_15_2" result="shape"/>
</filter>
</defs>
</svg>
