<svg width="26" height="27" viewBox="0 0 26 27" fill="none" xmlns="http://www.w3.org/2000/svg">
<path d="M25 16.1733C21.1873 17.715 17.1126 18.505 13 18.5C8.756 18.5 4.70667 17.6733 1 16.1733M18.3333 6.5V3.83333C18.3333 3.12609 18.0524 2.44781 17.5523 1.94771C17.0522 1.44762 16.3739 1.16667 15.6667 1.16667H10.3333C9.62609 1.16667 8.94781 1.44762 8.44772 1.94771C7.94762 2.44781 7.66667 3.12609 7.66667 3.83333V6.5M13 14.5H13.0133M3.66667 25.1667H22.3333C23.0406 25.1667 23.7189 24.8857 24.219 24.3856C24.719 23.8855 25 23.2072 25 22.5V9.16667C25 8.45942 24.719 7.78115 24.219 7.28105C23.7189 6.78095 23.0406 6.5 22.3333 6.5H3.66667C2.95942 6.5 2.28115 6.78095 1.78105 7.28105C1.28095 7.78115 1 8.45942 1 9.16667V22.5C1 23.2072 1.28095 23.8855 1.78105 24.3856C2.28115 24.8857 2.95942 25.1667 3.66667 25.1667Z" stroke="black" stroke-width="2" stroke-linecap="round" stroke-linejoin="round"/>
</svg>
