<svg width="22" height="26" viewBox="0 0 22 26" fill="none" xmlns="http://www.w3.org/2000/svg">
<path d="M7 3.66667H4.33333C3.62609 3.66667 2.94781 3.94762 2.44771 4.44772C1.94762 4.94781 1.66667 5.62609 1.66667 6.33333V22.3333C1.66667 23.0406 1.94762 23.7189 2.44771 24.219C2.94781 24.719 3.62609 25 4.33333 25H17.6667C18.3739 25 19.0522 24.719 19.5523 24.219C20.0524 23.7189 20.3333 23.0406 20.3333 22.3333V6.33333C20.3333 5.62609 20.0524 4.94781 19.5523 4.44772C19.0522 3.94762 18.3739 3.66667 17.6667 3.66667H15M7 3.66667C7 4.37391 7.28095 5.05219 7.78105 5.55229C8.28115 6.05238 8.95942 6.33333 9.66667 6.33333H12.3333C13.0406 6.33333 13.7189 6.05238 14.219 5.55229C14.719 5.05219 15 4.37391 15 3.66667M7 3.66667C7 2.95942 7.28095 2.28115 7.78105 1.78105C8.28115 1.28095 8.95942 1 9.66667 1H12.3333C13.0406 1 13.7189 1.28095 14.219 1.78105C14.719 2.28115 15 2.95942 15 3.66667" stroke="black" stroke-width="2" stroke-linecap="round" stroke-linejoin="round"/>
</svg>
